<?xml version="1.0" encoding="utf-8"?>
<!-- Generator: Adobe Illustrator 21.1.0, SVG Export Plug-In . SVG Version: 6.00 Build 0)  -->
<svg version="1.1" id="Layer_1" xmlns="http://www.w3.org/2000/svg" xmlns:xlink="http://www.w3.org/1999/xlink" x="0px" y="0px"
	 viewBox="0 0 300 106.3" style="enable-background:new 0 0 300 106.3;" xml:space="preserve">
<g>
	<polygon points="0.6,46.3 0,47.7 6.2,47.7 23.3,7.2 23.9,5.8 17.7,5.8 	"/>
	<polygon points="36.9,24.9 42.4,24.9 32.9,5.8 32.7,5.3 27.1,5.3 36.6,24.3 	"/>
	<path d="M48.7,41.4L48.7,41.4c1.6,1.4,3.5,2.1,5.4,2.1s3.9-0.7,5.4-2.1c2.9-2.6,3.1-7.1,0.4-10c-0.1-0.1-0.3-0.3-0.4-0.4
		c-1.3-1.2-2.8-1.9-4.6-2.1l0-0.1l-0.9,0c-2.1,0-4,0.7-5.5,2.1c-1.4,1.3-2.2,3-2.3,4.9c-0.1,1.9,0.6,3.7,1.9,5.1
		C48.4,41.2,48.5,41.3,48.7,41.4z M54.2,33.5L54.2,33.5c0.7,0,1.4,0.3,1.9,0.8c0.5,0.5,0.8,1.2,0.8,1.9c0,0.7-0.3,1.4-0.8,1.9
		c-0.5,0.5-1.2,0.8-1.9,0.8c-1.5,0-2.7-1.2-2.7-2.7C51.5,34.7,52.7,33.5,54.2,33.5z"/>
	<polygon points="82.1,47.8 85.2,50.4 92.3,50.4 84.6,42.8 84.3,42.5 79.9,42.5 72,50.4 79,50.4 	"/>
	<path d="M101.4,41.4L101.4,41.4c1.6,1.4,3.5,2.1,5.4,2.1s3.9-0.7,5.4-2.1c1.4-1.3,2.2-3,2.3-4.9c0.1-1.9-0.6-3.7-1.9-5.1
		c-0.1-0.1-0.3-0.3-0.4-0.4c-1.5-1.4-3.4-2.1-5.4-2.1c-2,0-4,0.7-5.5,2.1c-1.4,1.3-2.2,3-2.3,4.9c-0.1,1.9,0.6,3.7,1.9,5.1
		C101.1,41.1,101.3,41.3,101.4,41.4z M108.8,38.1c-0.5,0.5-1.2,0.8-1.9,0.8c-1.5,0-2.7-1.2-2.7-2.7c0-1.5,1.2-2.7,2.7-2.7h0
		c0.7,0,1.4,0.3,1.9,0.8c0.5,0.5,0.8,1.2,0.8,1.9C109.6,36.9,109.3,37.6,108.8,38.1z"/>
	<polygon points="136.5,6.7 137.2,5.3 131.6,5.3 122.6,23.4 121.9,24.9 127.4,24.9 	"/>
	<polygon points="158.1,47.7 164.4,47.7 147,6.4 146.7,5.8 140.5,5.8 157.9,47.1 	"/>
	<polygon points="203.5,21.1 203.5,20.6 168.8,20.6 168.8,26.2 203.5,26.2 	"/>
	<path d="M229.4,12.2l0.4,0.9l4.6-2l-0.4-0.9c-1.1-2.4-2.3-4.6-3.7-6.8l0.2-0.1l-0.6-0.5l-0.2-0.3l-4.4,2.1l0.6,0.9
		C227.2,7.7,228.4,9.9,229.4,12.2z"/>
	<path d="M221.2,13.9V0.5L221,0h-6.1v44.9h6.2v-25c2.9,1.2,5.7,2.6,8.4,4.1c3.3,1.8,6.4,4,9.3,6.3l0.9,0.7l3.1-5.2l-0.7-0.5
		C235.7,20.7,228.7,16.8,221.2,13.9z"/>
	<path d="M235.4,11.1l0.4,0.9l4.7-1.9l-0.5-0.9c-1.1-2.4-2.4-4.7-3.8-7L236,1.8L235.7,2l-0.3-0.4l-4,1.9l0.6,0.9
		C233.3,6.6,234.5,8.8,235.4,11.1z"/>
	<polygon points="21.8,71.7 22.6,71 19,67.3 18.8,66.5 1.4,81.1 0.5,81.9 17.9,96.4 18.6,97 22.6,92.9 9.4,81.9 	"/>
	<rect x="25.3" y="100.8" width="84.8" height="5.5"/>
	<polygon points="133.1,70.9 128.5,66.2 128.5,67.2 111.8,81.1 110.9,81.9 128.3,96.4 129,97 133.1,92.9 119.8,81.8 132.2,71.6 	"/>
	<rect x="135.8" y="100.8" width="84.8" height="5.5"/>
	<polygon points="255.8,59.6 249.6,59.6 267,100.9 267.3,101.5 273.5,101.5 256.1,60.2 	"/>
	<polygon points="293.8,59.6 276.7,100.1 276.1,101.5 282.3,101.5 299.4,61 300,59.6 	"/>
</g>
</svg>
